<svg xmlns="http://www.w3.org/2000/svg" width="1880" height="1160"
viewBox="0 0 1880 1160" role="img" aria-labelledby="title desc">
  <title id="title">Airbnb Business Agent system architecture</title>
  <desc id="desc">A multi-agent architecture with router, review, market watch, analyst, pricing, and mail agents connected to platform services and external integrations.</desc>
  <defs>
    <linearGradient id="bgGradient" x1="0%" y1="0%" x2="100%" y2="100%">
      <stop offset="0%" stop-color="#f8fbff"/>
      <stop offset="55%" stop-color="#f7f7fb"/>
      <stop offset="100%" stop-color="#eef6ff"/>
    </linearGradient>
    <linearGradient id="haloGradient" x1="0%" y1="0%" x2="0%" y2="100%">
      <stop offset="0%" stop-color="#dbeafe" stop-opacity="0.8"/>
      <stop offset="100%" stop-color="#dbeafe" stop-opacity="0"/>
    </linearGradient>
    <filter id="softShadow" x="-20%" y="-20%" width="140%" height="140%">
      <feDropShadow dx="0" dy="14" stdDeviation="18" flood-color="#94a3b8" flood-opacity="0.18"/>
    </filter>
    <marker id="arrowControl" viewBox="0 0 10 10" refX="8" refY="5" markerWidth="8" markerHeight="8" orient="auto-start-reverse">
      <path d="M 0 0 L 10 5 L 0 10 z" fill="#2563eb"/>
    </marker>
    <marker id="arrowData" viewBox="0 0 10 10" refX="8" refY="5" markerWidth="8" markerHeight="8" orient="auto-start-reverse">
      <path d="M 0 0 L 10 5 L 0 10 z" fill="#64748b"/>
    </marker>
    <marker id="arrowSchedule" viewBox="0 0 10 10" refX="8" refY="5" markerWidth="8" markerHeight="8" orient="auto-start-reverse">
      <path d="M 0 0 L 10 5 L 0 10 z" fill="#16a34a"/>
    </marker>
    <pattern id="dotGrid" width="28" height="28" patternUnits="userSpaceOnUse">
      <circle cx="2" cy="2" r="1.3" fill="#cbd5e1" opacity="0.28"/>
    </pattern>
  </defs>

  <rect width="1880" height="1160" fill="url(#bgGradient)"/>
  <rect width="1880" height="1160" fill="url(#dotGrid)"/>
  <ellipse cx="1280" cy="170" rx="480" ry="170" fill="url(#haloGradient)" opacity="0.8"/>

  <g>
    <text x="60" y="72" font-size="36" font-weight="800" fill="#0f172a">Airbnb Business Agent</text>
    <text x="60" y="110" font-size="20" font-weight="500" fill="#475569">
      Router-directed multi-agent platform for reviews, market intelligence, analysis, pricing, and inbox operations
    </text>
  </g>

  <g transform="translate(1315 46)">
    <rect x="0" y="0" width="500" height="92" rx="24" fill="#ffffff" fill-opacity="0.72" stroke="#dbe4ee"/>
    <text x="28" y="30" font-size="14" font-weight="800" letter-spacing="2" fill="#334155">FLOW LEGEND</text>
    <line x1="28" y1="56" x2="88" y2="56" stroke="#2563eb" stroke-width="4" stroke-linecap="round" marker-end="url(#arrowControl)"/>
    <text x="102" y="61" font-size="16" font-weight="500" fill="#475569">request routing</text>
    <line x1="218" y1="56" x2="278" y2="56" stroke="#64748b" stroke-width="4" stroke-linecap="round" marker-end="url(#arrowData)"/>
    <text x="292" y="61" font-size="16" font-weight="500" fill="#475569">data dependency</text>
    <line x1="28" y1="78" x2="88" y2="78" stroke="#16a34a" stroke-width="4" stroke-linecap="round" marker-end="url(#arrowSchedule)"/>
    <text x="102" y="83" font-size="16" font-weight="500" fill="#475569">autonomous trigger</text>
  </g>

  
    <g>
      <rect x="40" y="170" width="420" height="930" rx="32"
            fill="#ffffff" fill-opacity="0.62" stroke="#dbe4ee" stroke-width="1.5"/>
      <rect x="64" y="194" width="10" height="48" rx="5" fill="#f59e0b"/>
      <text x="90" y="216" font-size="15" font-weight="800" letter-spacing="2"
            fill="#334155">INTERFACES &amp; PLATFORM</text>
      <text x="90" y="242" font-size="16" font-weight="500" fill="#64748b">
        HTTP entrypoints, shared infrastructure, and automation
      </text>
    </g>
    
    <g>
      <rect x="510" y="170" width="440" height="930" rx="32"
            fill="#ffffff" fill-opacity="0.62" stroke="#dbe4ee" stroke-width="1.5"/>
      <rect x="534" y="194" width="10" height="48" rx="5" fill="#2563eb"/>
      <text x="560" y="216" font-size="15" font-weight="800" letter-spacing="2"
            fill="#334155">AGENT ORCHESTRATION</text>
      <text x="560" y="242" font-size="16" font-weight="500" fill="#64748b">
        Router-directed domain agents with focused responsibilities
      </text>
    </g>
    
    <g>
      <rect x="1000" y="170" width="840" height="930" rx="32"
            fill="#ffffff" fill-opacity="0.62" stroke="#dbe4ee" stroke-width="1.5"/>
      <rect x="1024" y="194" width="10" height="48" rx="5" fill="#0f766e"/>
      <text x="1050" y="216" font-size="15" font-weight="800" letter-spacing="2"
            fill="#334155">DATA &amp; INTEGRATIONS</text>
      <text x="1050" y="242" font-size="16" font-weight="500" fill="#64748b">
        External providers, persistence, and outbound communication
      </text>
    </g>
    

  <g opacity="0.98">
    <polyline points="410,305 560,305" fill="none" stroke="#2563eb" stroke-width="4" stroke-linecap="round" stroke-linejoin="round" marker-end="url(#arrowControl)"/><polyline points="900,305 1270,305" fill="none" stroke="#2563eb" stroke-width="4" stroke-linecap="round" stroke-linejoin="round" marker-end="url(#arrowControl)"/><polyline points="620,365 620,391 730,391 730,410" fill="none" stroke="#2563eb" stroke-width="3" stroke-linecap="round" stroke-linejoin="round" marker-end="url(#arrowControl)"/><polyline points="675,365 675,391 730,391 730,550" fill="none" stroke="#2563eb" stroke-width="3" stroke-linecap="round" stroke-linejoin="round" marker-end="url(#arrowControl)"/><polyline points="730,365 730,391 730,391 730,690" fill="none" stroke="#2563eb" stroke-width="3" stroke-linecap="round" stroke-linejoin="round" marker-end="url(#arrowControl)"/><polyline points="785,365 785,391 730,391 730,830" fill="none" stroke="#2563eb" stroke-width="3" stroke-linecap="round" stroke-linejoin="round" marker-end="url(#arrowControl)"/><polyline points="840,365 840,391 730,391 730,970" fill="none" stroke="#2563eb" stroke-width="3" stroke-linecap="round" stroke-linejoin="round" marker-end="url(#arrowControl)"/>
    <polyline points="560,446 410,466" fill="none" stroke="#64748b" stroke-width="3" stroke-linecap="round" stroke-linejoin="round" marker-end="url(#arrowData)"/><polyline points="560,483 460,483 460,686 410,686" fill="none" stroke="#64748b" stroke-width="3" stroke-linecap="round" stroke-linejoin="round" marker-end="url(#arrowData)"/><polyline points="560,885 455,885 455,723 410,723" fill="none" stroke="#64748b" stroke-width="3" stroke-linecap="round" stroke-linejoin="round" marker-end="url(#arrowData)"/><polyline points="560,1025 440,1025 440,723 410,723" fill="none" stroke="#64748b" stroke-width="3" stroke-linecap="round" stroke-linejoin="round" marker-end="url(#arrowData)"/><polyline points="900,605 1270,605" fill="none" stroke="#64748b" stroke-width="3" stroke-linecap="round" stroke-linejoin="round" marker-end="url(#arrowData)"/><polyline points="900,623 950,623 950,726 1270,726" fill="none" stroke="#64748b" stroke-width="3" stroke-linecap="round" stroke-linejoin="round" marker-end="url(#arrowData)"/><polyline points="900,745 980,745 980,866 1270,866" fill="none" stroke="#64748b" stroke-width="3" stroke-linecap="round" stroke-linejoin="round" marker-end="url(#arrowData)"/><polyline points="900,885 1270,885" fill="none" stroke="#64748b" stroke-width="3" stroke-linecap="round" stroke-linejoin="round" marker-end="url(#arrowData)"/><polyline points="900,866 1010,866 1010,623 1270,623" fill="none" stroke="#64748b" stroke-width="3" stroke-linecap="round" stroke-linejoin="round" marker-end="url(#arrowData)"/><polyline points="900,1025 1270,1025" fill="none" stroke="#64748b" stroke-width="3" stroke-linecap="round" stroke-linejoin="round" marker-end="url(#arrowData)"/>
    <polyline points="250,930 250,623 560,623" fill="none" stroke="#16a34a" stroke-width="3" stroke-linecap="round" stroke-linejoin="round" marker-end="url(#arrowSchedule)"/>
  </g>

  
    <g>
      <rect x="90" y="250" width="320" height="110" rx="24"
            fill="#fff7ed" stroke="#fb923c" stroke-width="2"
            filter="url(#softShadow)"/>
      <rect x="90" y="250" width="320" height="12" rx="24"
            fill="#f59e0b" opacity="0.95"/>
      <rect x="90" y="262" width="320" height="18"
            fill="#f59e0b" opacity="0.08"/>
      <text x="112" y="296" font-size="22" font-weight="700" fill="#7c2d12">Input API</text><text x="112" y="330" font-size="17" font-weight="500" fill="#475569"><tspan x="112" dy="0">POST /api/execute</tspan><tspan x="112" dy="23">prompt + context</tspan></text>
    </g>
    
    <g>
      <rect x="560" y="245" width="340" height="120" rx="24"
            fill="#eff6ff" stroke="#60a5fa" stroke-width="2"
            filter="url(#softShadow)"/>
      <rect x="560" y="245" width="340" height="12" rx="24"
            fill="#2563eb" opacity="0.95"/>
      <rect x="560" y="257" width="340" height="18"
            fill="#2563eb" opacity="0.08"/>
      <text x="582" y="291" font-size="22" font-weight="700" fill="#0f172a">router_agent</text><text x="582" y="325" font-size="17" font-weight="500" fill="#475569"><tspan x="582" dy="0">intent classification</tspan><tspan x="582" dy="23">reviews / market / analyst / pricing / mail</tspan></text>
    </g>
    
    <g>
      <rect x="1270" y="250" width="430" height="110" rx="24"
            fill="#fff7ed" stroke="#fb923c" stroke-width="2"
            filter="url(#softShadow)"/>
      <rect x="1270" y="250" width="430" height="12" rx="24"
            fill="#f59e0b" opacity="0.95"/>
      <rect x="1270" y="262" width="430" height="18"
            fill="#f59e0b" opacity="0.08"/>
      <text x="1292" y="296" font-size="22" font-weight="700" fill="#7c2d12">Output API</text><text x="1292" y="330" font-size="17" font-weight="500" fill="#475569"><tspan x="1292" dy="0">status / response / steps</tspan><tspan x="1292" dy="23">JSON payload</tspan></text>
    </g>
    
    <g>
      <rect x="560" y="410" width="340" height="110" rx="24"
            fill="#eff6ff" stroke="#60a5fa" stroke-width="2"
            filter="url(#softShadow)"/>
      <rect x="560" y="410" width="340" height="12" rx="24"
            fill="#2563eb" opacity="0.95"/>
      <rect x="560" y="422" width="340" height="18"
            fill="#2563eb" opacity="0.08"/>
      <text x="582" y="456" font-size="22" font-weight="700" fill="#0f172a">reviews_agent</text><text x="582" y="490" font-size="17" font-weight="500" fill="#475569"><tspan x="582" dy="0">vector retrieval + web fallback</tspan><tspan x="582" dy="23">answer synthesis + guardrails</tspan></text>
    </g>
    
    <g>
      <rect x="560" y="550" width="340" height="110" rx="24"
            fill="#eff6ff" stroke="#60a5fa" stroke-width="2"
            filter="url(#softShadow)"/>
      <rect x="560" y="550" width="340" height="12" rx="24"
            fill="#2563eb" opacity="0.95"/>
      <rect x="560" y="562" width="340" height="18"
            fill="#2563eb" opacity="0.08"/>
      <text x="582" y="596" font-size="22" font-weight="700" fill="#0f172a">market_watch_agent</text><text x="582" y="630" font-size="17" font-weight="500" fill="#475569"><tspan x="582" dy="0">weather / events / holidays</tspan><tspan x="582" dy="23">signal scoring + alert generation</tspan></text>
    </g>
    
    <g>
      <rect x="560" y="690" width="340" height="110" rx="24"
            fill="#eff6ff" stroke="#60a5fa" stroke-width="2"
            filter="url(#softShadow)"/>
      <rect x="560" y="690" width="340" height="12" rx="24"
            fill="#2563eb" opacity="0.95"/>
      <rect x="560" y="702" width="340" height="18"
            fill="#2563eb" opacity="0.08"/>
      <text x="582" y="736" font-size="22" font-weight="700" fill="#0f172a">analyst_agent</text><text x="582" y="770" font-size="17" font-weight="500" fill="#475569"><tspan x="582" dy="0">neighbor benchmarking</tspan><tspan x="582" dy="23">structured listing comparisons</tspan></text>
    </g>
    
    <g>
      <rect x="560" y="830" width="340" height="110" rx="24"
            fill="#eff6ff" stroke="#60a5fa" stroke-width="2"
            filter="url(#softShadow)"/>
      <rect x="560" y="830" width="340" height="12" rx="24"
            fill="#2563eb" opacity="0.95"/>
      <rect x="560" y="842" width="340" height="18"
            fill="#2563eb" opacity="0.08"/>
      <text x="582" y="876" font-size="22" font-weight="700" fill="#0f172a">pricing_agent</text><text x="582" y="910" font-size="17" font-weight="500" fill="#475569"><tspan x="582" dy="0">comp-based pricing</tspan><tspan x="582" dy="23">market signals + review volume</tspan></text>
    </g>
    
    <g>
      <rect x="560" y="970" width="340" height="110" rx="24"
            fill="#eff6ff" stroke="#60a5fa" stroke-width="2"
            filter="url(#softShadow)"/>
      <rect x="560" y="970" width="340" height="12" rx="24"
            fill="#2563eb" opacity="0.95"/>
      <rect x="560" y="982" width="340" height="18"
            fill="#2563eb" opacity="0.08"/>
      <text x="582" y="1016" font-size="22" font-weight="700" fill="#0f172a">mail_agent</text><text x="582" y="1050" font-size="17" font-weight="500" fill="#475569"><tspan x="582" dy="0">inbox classify + draft + send</tspan><tspan x="582" dy="23">Gmail push webhooks + HITL</tspan></text>
    </g>
    
    <g>
      <rect x="90" y="430" width="320" height="110" rx="24"
            fill="#f8fafc" stroke="#cbd5e1" stroke-width="2"
            filter="url(#softShadow)"/>
      <rect x="90" y="430" width="320" height="12" rx="24"
            fill="#475569" opacity="0.95"/>
      <rect x="90" y="442" width="320" height="18"
            fill="#475569" opacity="0.08"/>
      <text x="112" y="476" font-size="22" font-weight="700" fill="#0f172a">Pinecone</text><text x="112" y="510" font-size="17" font-weight="500" fill="#475569"><tspan x="112" dy="0">review embeddings</tspan><tspan x="112" dy="23">+ web quarantine namespace</tspan></text>
    </g>
    
    <g>
      <rect x="90" y="650" width="320" height="110" rx="24"
            fill="#ffffff" stroke="#cbd5e1" stroke-width="2"
            filter="url(#softShadow)"/>
      <rect x="90" y="650" width="320" height="12" rx="24"
            fill="#94a3b8" opacity="0.95"/>
      <rect x="90" y="662" width="320" height="18"
            fill="#94a3b8" opacity="0.08"/>
      <text x="112" y="696" font-size="22" font-weight="700" fill="#0f172a">LLM Gateway</text><text x="112" y="730" font-size="17" font-weight="500" fill="#475569"><tspan x="112" dy="0">Azure OpenAI compatible</tspan><tspan x="112" dy="23">embeddings + chat completions</tspan></text>
    </g>
    
    <g>
      <rect x="90" y="930" width="320" height="110" rx="24"
            fill="#ecfdf5" stroke="#4ade80" stroke-width="2"
            filter="url(#softShadow)"/>
      <rect x="90" y="930" width="320" height="12" rx="24"
            fill="#16a34a" opacity="0.95"/>
      <rect x="90" y="942" width="320" height="18"
            fill="#16a34a" opacity="0.08"/>
      <text x="112" y="976" font-size="22" font-weight="700" fill="#14532d">Scheduler</text><text x="112" y="1010" font-size="17" font-weight="500" fill="#475569"><tspan x="112" dy="0">internal thread / Vercel cron</tspan><tspan x="112" dy="23">autonomous market runs</tspan></text>
    </g>
    
    <g>
      <rect x="1270" y="550" width="430" height="110" rx="24"
            fill="#f0fdfa" stroke="#5eead4" stroke-width="2"
            filter="url(#softShadow)"/>
      <rect x="1270" y="550" width="430" height="12" rx="24"
            fill="#0f766e" opacity="0.95"/>
      <rect x="1270" y="562" width="430" height="18"
            fill="#0f766e" opacity="0.08"/>
      <text x="1292" y="596" font-size="22" font-weight="700" fill="#134e4a">External Market APIs</text><text x="1292" y="630" font-size="17" font-weight="500" fill="#475569"><tspan x="1292" dy="0">Open-Meteo + Ticketmaster</tspan><tspan x="1292" dy="23">Nager.Date holidays</tspan></text>
    </g>
    
    <g>
      <rect x="1270" y="690" width="430" height="110" rx="24"
            fill="#f8fafc" stroke="#cbd5e1" stroke-width="2"
            filter="url(#softShadow)"/>
      <rect x="1270" y="690" width="430" height="12" rx="24"
            fill="#475569" opacity="0.95"/>
      <rect x="1270" y="702" width="430" height="18"
            fill="#475569" opacity="0.08"/>
      <text x="1292" y="736" font-size="22" font-weight="700" fill="#0f172a">Alerts Inbox</text><text x="1292" y="770" font-size="17" font-weight="500" fill="#475569"><tspan x="1292" dy="0">SQLite / Postgres</tspan><tspan x="1292" dy="23">GET /api/market_watch/alerts</tspan></text>
    </g>
    
    <g>
      <rect x="1270" y="830" width="430" height="110" rx="24"
            fill="#f8fafc" stroke="#cbd5e1" stroke-width="2"
            filter="url(#softShadow)"/>
      <rect x="1270" y="830" width="430" height="12" rx="24"
            fill="#475569" opacity="0.95"/>
      <rect x="1270" y="842" width="430" height="18"
            fill="#475569" opacity="0.08"/>
      <text x="1292" y="876" font-size="22" font-weight="700" fill="#0f172a">Supabase Listings</text><text x="1292" y="910" font-size="17" font-weight="500" fill="#475569"><tspan x="1292" dy="0">large_dataset_table</tspan><tspan x="1292" dy="23">benchmark + pricing data</tspan></text>
    </g>
    
    <g>
      <rect x="1270" y="970" width="430" height="110" rx="24"
            fill="#f0fdfa" stroke="#5eead4" stroke-width="2"
            filter="url(#softShadow)"/>
      <rect x="1270" y="970" width="430" height="12" rx="24"
            fill="#0f766e" opacity="0.95"/>
      <rect x="1270" y="982" width="430" height="18"
            fill="#0f766e" opacity="0.08"/>
      <text x="1292" y="1016" font-size="22" font-weight="700" fill="#134e4a">Gmail API</text><text x="1292" y="1050" font-size="17" font-weight="500" fill="#475569"><tspan x="1292" dy="0">OAuth2 inbox fetch + send</tspan><tspan x="1292" dy="23">push notifications</tspan></text>
    </g>
    
</svg>
